<svg width="280" height="144" viewBox="0 0 280 144" fill="none" xmlns="http://www.w3.org/2000/svg">
  <path d="M279.98 3.69917C279.98 2.10948 279.278 0.883157 277.741 0.383542C277.083 0.156445 276.336 0.0656059 275.59 0.0201864C274.272 -0.0252331 272.955 0.0201864 271.638 0.0201864H170.516C165.73 0.0201864 160.9 0.0201864 156.114 0.0201864C154.446 0.0201864 152.777 0.111025 151.152 0.156445C150.494 0.156445 149.835 0.111025 149.177 0.156445C147.113 0.201864 145.049 0.338123 143.029 0.383542C137.541 0.428962 132.008 0.383542 126.52 0.383542C124.28 0.383542 122.085 0.428962 119.846 0.383542C118.836 0.383542 117.782 0.201864 116.772 0.201864C112.689 0.201864 108.605 0.201864 104.565 0.201864C102.282 0.201864 99.9989 0.065606 97.6718 0.065606C92.9296 0.065606 88.1875 0.156445 83.4015 0.201864C82.8307 0.201864 82.2598 0.201864 81.7329 0.201864C80.5035 0.247284 79.2741 0.383542 78.0446 0.428962C75.8053 0.519801 73.6098 0.56522 71.3705 0.61064C70.185 0.61064 69.0433 0.656059 67.8578 0.61064C67.4626 0.61064 67.1114 0.428962 66.7162 0.338123C66.5405 0.292703 66.321 0.201864 66.1454 0.247284C65.2672 0.338123 64.5207 0.792318 63.8182 1.33735C63.3352 1.70071 62.9839 2.20032 62.94 2.8362C62.8961 3.51749 62.8522 4.19878 62.8083 4.88007C62.7205 5.83388 62.7205 5.83388 61.7984 5.83388H32.8187H16.836C13.0598 5.83388 9.23976 5.83388 5.46362 5.83388C4.49763 5.83388 3.53164 5.8793 2.60956 6.01556C1.77529 5.92472 1.20448 6.37892 0.853212 7.10563C0.370217 8.15028 0.150674 9.24035 0.018948 10.3758C-0.0688693 10.9663 0.150674 11.4659 0.633669 11.8293C3.09255 13.646 5.55144 15.4628 8.01032 17.2342C9.15195 18.0517 10.3814 18.733 11.6108 19.5052C12.8403 20.2773 14.0697 21.1403 15.2992 21.9124C16.9677 22.957 18.4606 24.1834 19.8217 25.5914C20.6999 26.4998 21.6659 27.2265 22.6319 27.9532C24.2126 29.0887 25.7933 30.2242 27.3301 31.3596C29.5256 32.9493 31.721 34.5844 33.8725 36.2195C35.7606 37.6275 37.6926 39.0355 39.5806 40.3981C41.9956 42.1695 44.3667 43.9408 46.7817 45.7122C48.1428 46.7114 49.504 47.7107 50.8213 48.6645C52.5776 49.9362 54.3339 51.2534 56.0903 52.5251C57.4954 53.5244 58.9444 54.5236 60.3933 55.5228C60.7007 55.7499 60.9641 56.0224 61.3154 56.2041C62.0619 56.522 62.2814 57.1579 62.3692 57.8846C62.457 58.9293 62.457 59.9739 62.5449 61.0186C62.5888 61.6545 62.6766 62.3357 62.8961 62.9262C63.3791 64.2434 64.2573 65.1972 65.6624 65.4697C66.2332 65.5605 66.804 65.6968 67.3748 65.8785C70.1411 66.6506 72.8634 67.5136 75.6296 68.2403C77.6494 68.7853 79.6692 69.2395 81.689 69.7391C85.1578 70.6475 88.6266 71.5559 92.0954 72.3735C94.203 72.8731 96.2228 73.5089 98.1109 74.5082C100.35 75.6891 102.282 77.3242 103.951 79.3226C104.39 79.8677 104.829 80.4581 105.224 81.0486C106.102 82.502 106.849 84.0008 107.376 85.5905C107.859 87.044 108.21 88.5882 108.298 90.0871C108.385 91.5859 108.473 93.0847 108.21 94.5836C107.946 96.1733 107.683 97.7175 107.156 99.2164C106.366 101.397 105.224 103.395 103.643 105.076C102.59 106.211 101.36 107.119 100.043 107.937C97.584 109.527 94.8616 110.48 92.0515 111.162C89.2413 111.843 86.3873 111.888 83.4893 112.07C81.7329 112.161 79.9766 112.206 78.2202 112.252C75.1466 112.297 72.073 112.343 69.0433 112.388C68.1213 112.388 67.1992 112.388 66.321 112.388C66.0575 112.388 65.7502 112.433 65.4867 112.479C64.7403 112.524 63.9499 112.751 63.2035 112.615C62.2375 112.433 61.4911 112.615 60.8324 113.296C59.5152 114.614 58.2418 115.931 56.9245 117.293C54.773 119.519 52.6215 121.744 50.47 123.97C49.8114 124.651 49.504 125.469 49.504 126.423C49.504 127.967 49.504 129.511 49.504 131.055C49.504 131.6 49.4162 132.191 49.4162 132.736C49.4162 135.052 49.4162 137.369 49.4601 139.731C49.504 140.957 49.8553 142.047 50.9091 142.774C51.7433 143.319 52.6654 143.546 53.6314 143.591C56.5294 143.682 59.3834 143.5 62.2814 143.727C64.6086 143.909 66.8918 143.864 69.219 143.909C70.0971 143.909 70.9314 143.909 71.8096 143.909C73.6977 143.909 75.5418 143.909 77.4299 143.909C79.6692 143.909 81.9086 144 84.1918 144C86.7824 144 89.3291 143.955 91.9197 143.909C93.6761 143.909 95.4324 143.909 97.1888 143.909C98.2426 143.909 99.2525 143.773 100.218 143.455C101.316 143.046 102.502 143.001 103.643 142.865C104.522 142.774 105.488 142.728 106.322 142.456C107.683 142.002 108.956 141.366 110.274 140.73C112.557 139.64 114.928 138.822 117.343 138.141C120.46 137.278 123.622 136.551 126.739 135.779C128.408 135.37 130.076 135.052 131.789 135.143C132.579 135.189 133.37 135.189 134.16 135.143C135.741 135.007 137.321 134.825 138.902 134.644C139.561 134.553 140.263 134.553 140.922 134.462C143.205 134.099 145.488 133.871 147.772 133.871C148.123 133.871 148.43 133.871 148.738 133.871C150.23 133.826 151.723 133.735 153.216 133.781C154.533 133.826 155.851 133.962 157.212 134.053C158.002 134.099 158.793 134.144 159.583 134.189C160.681 134.28 161.822 134.416 162.92 134.553C164.852 134.78 166.74 135.052 168.672 135.325C170.297 135.552 171.965 135.643 173.59 136.006C176.971 136.687 180.308 137.46 183.645 138.277C185.972 138.868 188.299 139.594 190.582 140.321C191.505 140.594 192.471 140.957 193.305 141.411C196.247 142.955 199.364 143.637 202.613 143.682C204.238 143.727 205.863 143.591 207.443 143.546C209.244 143.5 211 143.546 212.8 143.546C214.074 143.546 215.347 143.591 216.576 143.546C218.069 143.5 219.562 143.364 221.055 143.364C224.699 143.364 228.3 143.455 231.944 143.5C234.184 143.5 236.379 143.5 238.619 143.5C240.068 143.5 241.473 143.455 242.922 143.5C244.502 143.546 246.083 143.273 247.62 143.727C247.708 143.727 247.752 143.727 247.839 143.727C250.298 143.455 251.835 141.729 251.747 139.276C251.703 138.277 251.659 137.278 251.615 136.324C251.572 134.008 251.528 131.691 251.44 129.375C251.44 128.648 251.44 127.922 251.44 127.195C251.44 126.559 251.308 125.968 250.913 125.514C250.21 124.697 249.508 123.834 248.761 123.062C247.532 121.699 246.259 120.382 244.985 119.065C243.229 117.248 241.473 115.431 239.716 113.614C239.058 112.933 238.267 112.57 237.257 112.615C235.633 112.661 234.052 112.524 232.427 112.479C231.813 112.433 231.198 112.343 230.627 112.297C229.705 112.206 228.783 112.07 227.861 112.025C226.5 111.934 225.095 111.888 223.734 111.843C223.207 111.843 222.724 111.843 222.197 111.843C220.704 111.888 219.255 111.48 217.85 111.116C215.479 110.571 213.195 109.708 210.956 108.664C208.673 107.528 206.653 106.029 204.765 104.303C202.965 102.668 201.34 100.851 200.111 98.7168C199.32 97.3996 198.618 96.037 197.871 94.6744C196.818 92.8122 196.291 90.8138 195.895 88.7245C195.544 87.044 195.588 85.3634 195.588 83.6829C195.544 81.4119 196.115 79.2772 196.817 77.1879C197.52 75.0532 198.662 73.191 200.023 71.4196C200.506 70.8292 200.945 70.1933 201.516 69.6937C202.789 68.5582 204.106 67.4681 205.555 66.5598C207.356 65.4697 209.112 64.2434 210.868 63.0625C212.712 61.7907 214.6 60.6098 216.445 59.2926C218.947 57.4759 221.406 55.5228 223.909 53.6606C225.665 52.3435 227.466 51.0717 229.354 49.9816C230.891 49.1187 232.427 48.2557 233.92 47.3019C236.204 45.8485 238.443 44.3496 240.682 42.8508C244.458 40.3073 248.191 37.7184 251.967 35.1295C255.655 32.6314 259.343 30.0879 263.032 27.5898C266.018 25.5459 268.959 23.5021 271.901 21.4582C273.394 20.4135 274.931 19.4143 276.292 18.0971C277.214 17.1433 278.224 16.2804 279.454 15.7353C279.893 15.5537 279.98 15.1449 279.98 14.7361C279.98 11.0571 280.024 7.37815 279.98 3.69917ZM62.018 49.9816C62.018 50.2087 61.9301 50.5721 61.7545 50.6629C61.6228 50.7538 61.2715 50.6175 61.0959 50.4813C58.9004 48.8916 56.7489 47.2565 54.5974 45.6668C53.1923 44.6221 51.6994 43.6229 50.2943 42.5328C47.5281 40.489 44.7619 38.4451 41.9956 36.3558C39.6685 34.5844 37.3413 32.8131 34.9702 31.0417C33.3017 29.77 31.6332 28.5436 30.0086 27.2719C29.8768 27.181 29.7451 27.0902 29.5695 27.0448C29.6134 26.954 29.6573 26.8631 29.7012 26.7723C29.9207 26.7269 30.1403 26.6814 30.3598 26.636C33.2578 26.4998 36.0679 26.7269 38.7903 27.7715C40.8979 28.5891 43.0933 29.1341 45.0692 30.2242C46.606 31.0417 48.055 31.9955 49.3723 33.2218C50.6017 34.3573 51.8751 35.4928 53.1923 36.5375C54.7291 37.7638 56.5733 36.9462 57.3636 35.7199C57.8905 34.9478 57.7588 34.0394 57.6271 33.1764C57.4954 32.1772 57.188 31.2234 57.2319 30.1787C57.2758 28.9978 57.5393 27.9532 58.1979 26.9994C58.7687 26.1818 59.2956 25.3188 59.8664 24.5013C60.2616 23.9563 60.7446 23.5021 61.1837 23.0025C61.3154 22.8662 61.6228 22.7754 61.7106 22.8662C61.8862 22.957 62.018 23.2296 62.018 23.4112C62.0619 24.8192 62.018 26.2272 62.018 27.6352V46.5298C62.0619 47.7107 62.0619 48.8461 62.018 49.9816ZM61.974 15.5082C60.5251 15.5082 59.0761 15.5082 57.6271 15.5082C55.8268 15.5537 53.9827 15.5991 52.1385 15.6445C52.0068 15.6445 51.8751 15.6445 51.6994 15.6445C47.5281 15.6899 43.3568 15.7353 39.1855 15.7808C37.473 15.7808 35.7167 15.7808 34.0042 15.7808C30.0086 15.8716 25.969 15.917 21.9294 16.0079C19.8217 16.0533 17.7141 16.0987 15.6065 16.1441C14.904 16.1441 14.2893 15.917 13.7184 15.4628C12.1816 14.2819 10.6009 13.1464 9.06413 11.9655C8.97631 11.9201 8.8885 11.8747 8.84459 11.7838C8.75677 11.6022 8.66895 11.4205 8.53723 11.2388C8.71286 11.148 8.8885 11.0117 9.06413 10.9663C9.28367 10.9209 9.54712 10.9663 9.76667 10.9663H25.5299C30.6233 10.9663 35.7606 11.1025 40.854 10.9209C44.191 10.83 47.5281 10.7846 50.9091 10.7846C51.9629 10.7846 53.0167 10.7846 54.0705 10.6938C55.6073 10.5575 57.1441 10.6483 58.7248 10.6483C59.6469 10.6483 60.569 10.6938 61.535 10.7392C62.5009 10.7846 62.6766 11.0117 62.7644 11.9201C62.8083 12.6468 62.8961 13.4189 62.9839 14.1457C63.0718 14.9632 62.94 15.5082 61.974 15.5082ZM97.1888 68.5128C87.2654 66.0147 77.3421 63.5621 67.3309 61.064C67.3309 60.7461 67.287 60.4735 67.287 60.201C67.287 58.8384 67.287 57.4759 67.287 56.1133C67.287 55.2049 67.3309 55.1595 68.1652 55.1595C71.4583 55.1595 74.7076 55.1595 78.0007 55.1595C80.1522 55.1595 82.3037 55.0686 84.4553 55.0232C85.2895 54.9778 85.9921 55.2503 86.519 55.8862C87.002 56.4766 87.485 57.1125 88.0119 57.703C88.2753 58.0663 88.5827 58.3843 88.89 58.7476C89.5487 59.4743 90.2073 60.201 90.822 60.9277C91.7441 61.9724 92.6223 63.017 93.5444 64.0617C93.6322 64.1525 93.72 64.2888 93.8517 64.3796C94.9055 65.5151 95.9593 66.6506 97.0131 67.7861C97.1449 67.9223 97.2327 68.104 97.3644 68.2857C97.2766 68.422 97.2327 68.4674 97.1888 68.5128ZM72.4682 24.7738C72.4682 23.6383 72.5999 22.5483 72.6438 21.4582C72.6878 19.6414 72.6438 17.7792 72.6438 15.917C72.6438 15.054 72.6438 15.0086 73.4781 14.8724C74.4441 14.7361 75.454 14.7361 76.42 14.7815C77.3421 14.7815 78.2202 14.9178 79.1423 14.9178C92.754 14.9178 106.366 14.9178 119.977 14.9178C121.119 14.9178 122.261 14.9178 123.446 14.9178C125.817 14.8724 128.188 14.7815 130.515 14.7815C131.174 14.7815 131.833 14.9178 132.491 15.0086C132.491 15.054 132.535 15.1449 132.535 15.2357C132.14 15.6899 131.569 15.917 131.086 16.1441C128.891 17.1433 126.651 18.0517 124.5 19.1872C122.041 20.459 119.758 22.0486 117.562 23.7292C115.191 25.5459 112.864 27.499 110.274 29.0432C108.605 30.0425 107.156 31.2688 105.707 32.4951C103.863 34.0848 102.107 35.7653 100.394 37.5367C99.1208 38.8539 97.8035 40.1256 96.4862 41.3974C96.0472 41.8061 95.5642 42.1695 94.9933 42.6691C94.9055 41.897 94.686 41.3519 94.8177 40.6706C94.9494 40.1256 94.9494 39.5806 94.9933 39.0355C95.2129 37.4004 96.1789 36.3104 97.3205 35.2657C97.4961 35.084 97.7157 34.9024 97.8913 34.7661C98.4182 34.2665 98.9451 33.8123 99.4281 33.3127C99.9111 32.8585 100.306 32.3134 100.745 31.8138C101.887 30.5875 103.029 29.4066 104.214 28.2257C105.092 27.3173 106.014 26.4543 106.893 25.5914C107.068 25.4097 107.2 25.228 107.376 25.0009C107.376 24.9555 107.332 24.9101 107.332 24.8192H105.795C101.931 24.8192 98.1109 24.8192 94.2469 24.8647C91.9636 24.9101 89.6804 24.9101 87.3972 25.1372C84.8505 25.3643 82.655 26.4543 81.1182 28.6345C79.6253 30.6784 78.5715 32.9947 77.7812 35.402C77.3421 36.81 76.8591 38.218 76.42 39.5806C76.2883 40.0348 76.0248 40.1256 75.6296 40.0802C74.9271 39.9893 74.2685 39.8531 73.5659 39.8077C72.8195 39.7622 72.2926 39.3535 72.2926 38.4905C72.3365 36.4466 72.3804 34.3573 72.4243 32.3134C72.4243 31.3596 72.4682 30.4058 72.4682 29.4974C72.4682 27.8623 72.4243 26.3181 72.4682 24.7738ZM57.0563 124.152C59.12 122.017 61.1398 119.882 63.2474 117.793C63.9938 117.021 65.0037 116.975 66.0136 117.066C66.2332 117.112 66.4966 117.157 66.7162 117.157C69.0433 117.202 71.3705 117.293 73.6537 117.293C74.5319 117.293 75.3662 117.157 76.2444 117.112C77.386 117.066 78.5276 117.021 79.6692 117.021C80.6352 117.021 81.6012 117.021 82.5672 116.975C84.2357 116.93 85.9482 116.975 87.6167 116.794C89.0657 116.612 90.5147 116.203 91.9197 115.84C94.5104 115.113 97.0131 114.296 99.6038 113.524C100.789 113.16 101.755 112.433 102.765 111.798C104.214 110.935 105.488 109.845 106.717 108.709C107.902 107.574 108.825 106.256 109.571 104.803C110.23 103.531 110.844 102.259 111.371 100.942C111.898 99.5343 112.118 97.9901 112.249 96.4912C112.337 95.8553 112.513 95.2195 112.776 94.629C113.259 93.6298 113.347 92.5397 113.303 91.4496C113.259 90.5413 113.084 89.6783 112.996 88.8153C112.908 87.4073 112.293 86.181 111.766 84.9092C111.371 83.9554 110.932 83.0925 110.537 82.1386C110.186 81.3211 110.449 80.5035 111.152 79.9585C114.84 82.8199 118.616 85.5905 122.612 87.9978C126.564 90.405 130.735 92.4489 135.214 94.1294C134.467 95.0378 133.853 95.7645 133.106 96.3095C131.877 97.1725 130.559 97.8992 129.286 98.7622C127.354 100.079 125.422 101.397 123.534 102.759C122.348 103.622 121.295 104.621 120.153 105.575C120.065 105.666 119.977 105.757 119.89 105.802C118.265 106.574 117.123 107.892 115.894 109.163C115.191 109.89 114.357 110.526 113.698 111.298C112.776 112.343 111.942 113.478 111.02 114.568C110.8 114.841 110.625 115.113 110.361 115.34C108.649 116.839 106.805 118.111 104.829 119.246C101.799 120.972 98.5939 122.017 95.3446 122.925C93.2809 123.516 91.1733 124.106 89.0657 124.515C87.0459 124.924 84.9822 125.242 82.8746 125.105C81.6012 125.015 80.284 124.924 79.0106 124.969C77.6933 125.015 76.3761 125.151 75.0149 125.242C74.7515 125.242 74.488 125.242 74.2246 125.242C71.7218 125.242 69.2629 125.242 66.7601 125.242C63.6865 125.242 60.569 125.242 57.4954 125.242C57.188 125.242 56.7928 125.378 56.6172 125.015C56.4416 124.606 56.8367 124.379 57.0563 124.152ZM168.189 122.562C168.101 123.788 167.882 124.969 167.926 126.241C167.926 127.331 167.75 128.467 167.618 129.557C167.574 130.011 167.223 130.011 166.872 130.011C165.555 129.92 164.281 129.829 162.964 129.693C161.954 129.602 160.988 129.466 159.978 129.33C159.32 129.239 158.617 129.102 157.958 129.102C155.807 129.057 153.655 129.057 151.504 129.102C149.879 129.102 148.298 129.193 146.674 129.239C146.059 129.239 145.4 129.102 144.786 129.148C144.083 129.148 143.337 129.239 142.634 129.284C141.888 129.375 141.141 129.511 140.395 129.557C139.253 129.602 138.156 129.784 137.058 130.011C136.267 130.192 135.477 130.238 134.687 130.238C132.93 130.238 131.218 130.51 129.549 130.828C127.31 131.237 125.071 131.737 122.831 132.191C122.48 132.282 122.129 132.418 121.778 132.554C119.187 133.508 116.596 134.326 113.874 134.78C113.303 134.871 112.776 134.962 112.206 135.052C110.625 135.279 109.22 136.052 107.771 136.642C106.19 137.278 104.741 138.186 103.073 138.504C102.414 138.641 101.711 138.731 101.053 138.731C97.54 138.731 94.0274 138.731 90.5147 138.731C88.7583 138.731 86.9581 138.913 85.2017 139.004C85.1139 139.004 85.07 139.004 84.9822 139.004C82.4794 139.049 79.9766 139.14 77.4738 139.14C75.1027 139.14 72.7317 139.049 70.4045 139.004C69.0433 138.958 67.6383 138.868 66.2771 138.868C62.6766 138.822 59.0761 138.777 55.4756 138.731C55.2121 138.731 54.9926 138.686 54.5974 138.686C54.5535 138.005 54.4657 137.369 54.4218 136.733C54.3339 135.279 54.29 133.826 54.29 132.373C54.29 131.419 54.3779 130.51 54.4218 129.557C54.4657 129.102 54.773 128.784 55.2999 128.648C55.739 128.557 56.1781 128.512 56.6172 128.512C58.2857 128.512 59.9982 128.603 61.6667 128.603C63.4669 128.603 65.2672 128.512 67.0675 128.512C69.702 128.512 72.2926 128.603 74.9271 128.648C75.8492 128.694 76.7713 128.784 77.7373 128.83C78.4398 128.875 79.1862 128.784 79.8888 128.784C81.206 128.83 82.5233 128.875 83.7966 128.921C84.0162 128.921 84.2357 128.921 84.4114 128.921C86.0799 128.921 87.7923 128.875 89.4609 128.921C91.8758 129.012 94.1591 129.693 96.135 131.192C96.8375 131.737 97.4961 132.418 98.1987 133.054C99.0769 133.871 99.9111 134.689 100.833 135.507C101.228 135.37 101.272 134.962 101.448 134.644C102.37 132.781 103.204 130.874 104.214 129.012C105.005 127.513 105.883 126.014 106.805 124.606C107.771 123.152 108.825 121.79 110.098 120.609C110.888 119.928 111.547 119.11 112.293 118.383C115.06 115.749 117.87 113.251 121.075 111.207C125.554 108.391 130.252 106.12 135.389 104.803C137.409 104.303 139.429 103.804 141.493 103.44C142.854 103.213 144.259 103.168 145.664 103.077C147.596 102.986 149.528 102.986 151.46 102.895C153.524 102.805 155.543 103.168 157.563 103.713C159.363 104.258 161.076 104.985 162.657 106.075C163.974 106.983 164.94 108.209 165.774 109.572C166.652 111.025 167.135 112.615 167.53 114.296C167.75 115.249 168.057 116.203 168.233 117.157C168.365 117.793 168.496 118.474 168.496 119.156C168.453 120.336 168.233 121.427 168.189 122.562ZM165.335 95.6282C164.413 95.5828 163.447 95.3557 162.525 95.2195C162.525 95.1286 162.481 95.0832 162.481 94.9924C173.063 91.7222 182.415 86.0447 191.109 79.0955C191.505 79.5497 191.68 80.0039 191.68 80.5035C191.68 81.2303 191.68 81.957 191.68 82.6837C191.68 82.7745 191.68 82.8199 191.68 82.9108C191.285 83.7738 191.241 84.7276 191.065 85.6359C191.022 85.9539 190.758 86.2264 190.539 86.4535C188.694 87.9978 186.85 89.5874 184.787 90.8138C181.406 92.9031 177.805 94.3565 173.985 95.1286C171.087 95.6737 168.189 95.7645 165.335 95.6282ZM193.129 136.142C192.602 135.961 192.251 135.824 191.9 135.688C188.563 134.371 185.094 133.417 181.625 132.554C180.22 132.191 178.771 131.918 177.322 131.555C176.62 131.373 176.62 131.373 176.62 130.647C176.62 128.467 176.62 126.286 176.62 124.106V114.296C176.62 114.159 176.62 114.023 176.62 113.841C176.663 113.115 176.883 112.978 177.498 113.296C178.991 114.023 180.352 114.932 181.625 116.022C182.811 117.021 183.996 118.065 185.05 119.246C186.631 121.018 188.036 122.925 189.265 125.015C190.539 127.149 191.548 129.375 192.295 131.782C192.646 132.872 192.866 134.008 193.085 135.143C193.173 135.416 193.129 135.688 193.129 136.142ZM244.985 128.603C245.556 128.603 246.127 128.784 246.698 128.966C246.873 129.012 247.049 129.284 247.093 129.466C247.181 129.965 247.225 130.465 247.225 130.965C247.181 132.509 247.137 134.053 247.093 135.597C247.093 136.324 247.093 137.051 247.093 137.778C247.093 138.504 246.961 138.641 246.259 138.641C243.756 138.641 241.297 138.641 238.794 138.641H238.355C235.94 138.641 233.481 138.641 231.066 138.641C227.51 138.686 223.953 138.868 220.396 138.731C214.425 138.504 208.453 138.686 202.482 138.641C201.691 138.641 201.604 138.55 201.56 137.732C201.516 136.869 201.735 136.052 202.13 135.279C202.877 133.735 203.931 132.509 205.38 131.555C206.346 130.919 207.268 130.192 208.409 129.738C209.771 129.239 211.22 128.921 212.669 128.921C215.215 128.875 217.762 128.921 220.353 128.921C224.304 128.921 228.256 128.921 232.208 128.921C233.613 128.921 235.018 128.784 236.423 128.784C239.233 128.648 242.131 128.603 244.985 128.603ZM198.398 104.485C198.969 105.393 199.715 106.256 200.506 107.029C201.428 107.937 202.394 108.754 203.404 109.527C206.038 111.525 208.936 113.069 211.966 114.296C213.766 114.977 215.654 115.431 217.498 115.885C219.65 116.43 221.889 116.521 223.997 117.339C224.173 117.43 224.348 117.43 224.524 117.43C226.631 117.475 228.739 117.52 230.847 117.611C231.549 117.611 232.252 117.748 232.954 117.793C233.701 117.838 234.447 117.793 235.194 117.793C235.94 117.793 236.555 118.02 237.082 118.565C237.872 119.428 238.706 120.246 239.497 121.109C239.672 121.29 239.804 121.517 240.024 121.835C239.628 121.881 239.365 121.972 239.145 121.972C238.092 121.926 237.038 122.062 236.028 122.244C235.633 122.335 235.194 122.289 234.755 122.289C233.35 122.289 231.901 122.335 230.452 122.289C229.178 122.244 227.905 122.108 226.631 122.017C225.929 121.972 225.182 121.926 224.48 121.835C223.338 121.744 222.197 121.608 221.055 121.472C219.299 121.245 217.542 121.018 215.786 120.745C214.732 120.564 213.678 120.246 212.669 119.973C209.244 119.019 205.994 117.52 202.965 115.658C201.516 114.795 200.198 113.705 198.881 112.615C197.827 111.752 196.861 110.708 195.939 109.708C194.446 108.164 193.305 106.347 192.339 104.394C191.022 101.805 190.319 99.0347 189.748 96.2187C189.529 95.174 189.529 94.1748 190.099 93.2664C190.363 92.8122 190.978 92.4943 191.505 92.2672C191.812 92.0855 191.988 92.4489 192.119 92.7214C192.339 93.2664 192.558 93.8569 192.778 94.4019C192.91 94.7653 193.085 95.0832 193.349 95.4011C194.359 96.6729 194.886 98.1717 195.632 99.5797C196.466 101.169 197.388 102.85 198.398 104.485ZM201.823 62.1541C200.725 63.335 199.584 64.4705 198.442 65.6514C198.223 65.8785 198.003 66.1056 197.827 66.3327C197.125 67.5136 196.203 68.5128 195.149 69.3758C194.315 70.1025 193.568 70.92 192.734 71.6922C191.636 72.6914 190.495 73.6906 189.353 74.6444C186.938 76.6883 184.26 78.3234 181.625 80.0039C179.913 81.0486 178.244 82.2295 176.488 83.2741C175.478 83.91 174.424 84.5005 173.326 85.0455C170.867 86.2264 168.365 87.4073 165.862 88.5428C163.886 89.4058 161.866 90.2233 159.846 90.9955C158.793 91.4042 157.695 91.6313 156.553 91.4951C156.422 91.4951 156.29 91.4951 156.202 91.4951C155.016 91.0409 153.831 91.4496 152.689 91.5405C152.514 91.5405 152.382 91.6313 152.206 91.6313C150.274 91.6767 148.342 91.7222 146.41 91.4042C145.313 91.2225 144.215 91.0863 143.161 91.0409C141.141 90.9046 139.165 90.5413 137.277 89.8145C135.521 89.1787 133.721 88.5882 132.008 87.8615C129.154 86.6806 126.344 85.3634 123.754 83.5921C122.261 82.5928 120.856 81.4119 119.363 80.3219C118.089 79.3681 116.772 78.5051 115.543 77.5059C114.181 76.4612 112.864 75.3257 111.503 74.2356C110.317 73.2818 109.132 72.2826 107.946 71.2834C107.112 70.6021 106.278 69.8754 105.531 69.1033C103.907 67.5136 102.326 65.9239 100.745 64.3342C100.043 63.6075 99.2964 62.9262 98.5499 62.1995C98.067 61.6999 98.0669 61.4274 98.506 60.8823C99.1647 60.0194 99.8233 59.111 100.438 58.248C100.57 58.0663 100.701 57.8392 100.789 57.6121C100.877 57.6575 100.965 57.6575 101.053 57.703C101.404 58.1571 101.799 58.6113 102.15 59.0655C102.809 60.0648 103.643 60.9277 104.565 61.6999C105.268 62.2903 105.927 63.017 106.629 63.6529C108.385 65.288 110.098 66.9685 111.942 68.5128C114.577 70.6475 117.255 72.7368 119.933 74.7353C123.534 77.415 127.398 79.6406 131.394 81.5482C133.94 82.7745 136.619 83.8192 139.341 84.5459C141.097 85.0001 142.81 85.5451 144.61 85.7268C145.4 85.8176 146.191 85.9539 146.981 85.9539C148.518 85.9993 150.055 86.0447 151.592 85.9539C153.919 85.7722 156.246 85.5905 158.529 85.1818C160.461 84.8184 162.305 84.1825 164.193 83.5467C167.047 82.5928 169.77 81.2757 172.404 79.8223C173.151 79.4135 173.853 78.8684 174.512 78.278C175.478 77.415 176.576 76.6883 177.673 76.0524C179.693 74.8715 181.757 73.736 183.689 72.4643C185.27 71.3742 186.719 70.0571 188.211 68.8307C190.319 67.1502 192.075 65.1063 194.007 63.2441C194.886 62.3812 195.895 61.6544 196.817 60.8369C197.3 60.4281 197.74 59.9285 198.223 59.5197C198.662 59.111 199.145 58.7022 199.628 58.248C199.803 58.3842 199.979 58.4751 200.111 58.6568C200.725 59.3381 201.34 59.9739 201.911 60.7006C202.262 61.2457 202.218 61.7453 201.823 62.1541ZM120.416 54.2057C120.504 56.5675 120.724 58.8839 121.339 61.1548C121.734 62.6083 122.129 64.0617 122.7 65.4243C123.358 67.014 124.193 68.5582 124.983 70.0571C125.466 70.9654 126.037 71.783 126.608 72.6006C126.695 72.7368 126.739 72.8731 126.827 73.0547C126.783 73.1002 126.739 73.1456 126.695 73.2364C126.212 73.0093 125.729 72.7822 125.29 72.5097C124.105 71.7376 122.875 70.92 121.734 70.0571C119.933 68.6945 118.221 67.2865 116.465 65.8785C114.928 64.6521 113.435 63.4712 111.942 62.2449C111.152 61.609 110.405 60.9732 109.703 60.2919C108.781 59.3381 108.254 58.1117 108.078 56.7491C107.99 56.1133 107.99 55.432 107.902 54.7961C107.815 54.024 108.034 53.2973 108.342 52.616C109.264 50.6175 110.361 48.7553 111.679 46.984C112.82 45.4851 114.181 44.3496 115.718 43.3504C117.255 42.3057 118.704 41.0794 120.197 39.9439C121.295 39.1264 122.348 38.2634 123.446 37.4459C123.754 37.2188 124.105 37.0825 124.456 36.9462C124.588 36.9008 124.851 36.9008 124.895 36.9917C124.983 37.1279 124.939 37.355 124.895 37.4913C124.412 38.4905 123.885 39.4443 123.446 40.489C122.261 43.0779 121.382 45.7576 120.943 48.6191C120.504 50.4358 120.329 52.298 120.416 54.2057ZM179.957 53.161C179.825 51.8893 179.737 50.6175 179.517 49.3458C179.342 48.3011 179.122 47.211 178.815 46.1664C178.42 44.8038 177.937 43.3958 177.41 42.0786C176.883 40.8069 176.18 39.5806 175.522 38.3542C175.346 38.0363 175.214 37.673 175.083 37.355C175.697 36.7191 176.356 36.9462 176.883 37.3096C178.112 38.1271 179.298 39.081 180.44 39.9893C181.537 40.8523 182.635 41.7153 183.689 42.6237C184.523 43.3504 185.313 44.2134 186.148 44.9855C186.719 45.5305 187.377 46.0301 187.992 46.5752C188.519 47.0294 189.046 47.4836 189.529 47.9378C190.89 49.2549 191.9 50.7538 192.207 52.6614C192.339 53.3881 192.383 54.1602 192.295 54.8869C192.119 56.3858 191.68 57.8392 190.934 59.2018C190.056 60.7915 188.826 61.9724 187.465 63.1079C185.84 64.4705 184.304 65.8785 182.679 67.2411C181.318 68.3765 180 69.512 178.508 70.375C177.586 70.92 176.707 71.5105 175.873 72.1464C175.39 72.5097 174.731 72.6006 174.292 73.191C174.117 73.4181 173.809 73.3727 173.634 73.1002C173.414 72.8731 173.546 72.6914 173.678 72.4643C174.468 71.2834 175.346 70.1025 176.049 68.8762C177.41 66.6052 178.332 64.1071 178.947 61.5182C179.254 60.2919 179.517 59.0201 179.737 57.7484C179.869 57.0217 179.869 56.2949 179.913 55.5682C179.957 55.0686 180 54.569 180.044 54.0694C179.957 53.7515 180 53.4335 179.957 53.161ZM173.985 53.6606C173.941 55.7953 173.678 57.8846 173.151 59.9739C172.712 61.6545 172.273 63.2896 171.526 64.8338C170.692 66.6506 169.682 68.422 168.409 69.9662C166.872 71.8738 165.115 73.5089 163.008 74.7807C162.349 75.1441 162.261 75.144 161.998 74.4173C161.954 74.2811 161.91 74.1448 161.822 74.0086C161.032 72.9185 161.164 71.6922 161.339 70.4658C161.427 69.8754 161.515 69.2849 161.515 68.6491C161.559 67.2865 161.691 65.9239 161.647 64.6067C161.603 63.6983 161.295 62.8354 161.076 61.927C161.032 61.7907 160.944 61.6999 160.812 61.5182C160.286 62.0632 159.846 62.5628 159.363 63.017C157.475 64.8338 155.324 66.3327 152.821 67.0594C150.977 67.6044 149.089 67.6044 147.245 66.7414C145.971 66.151 144.654 65.6514 143.468 64.8792C141.624 63.7438 140.175 62.1995 139.034 60.2919C138.024 58.5659 137.497 56.7037 137.19 54.7053C136.707 51.7984 137.541 49.2095 138.946 46.7569C139.605 45.5759 140.439 44.5313 141.405 43.5775C141.844 43.1687 142.283 42.7599 142.81 42.3057C141.273 41.7607 139.78 41.6245 138.287 41.5336C136.794 41.4428 135.301 41.5336 133.809 41.6244C132.36 41.7607 130.911 42.0332 129.286 42.2603C129.418 41.897 129.462 41.6699 129.593 41.4428C130.691 39.4897 131.877 37.6275 133.326 35.947C134.16 34.9932 135.038 34.1757 135.96 33.3581C137.936 31.723 140.088 30.5875 142.634 30.1333C143.205 30.0425 143.776 29.7245 144.391 29.5883C145.488 29.3612 146.586 29.1341 147.684 29.0432C148.65 28.9524 149.616 28.8616 150.538 28.907C152.426 28.9524 154.27 29.1795 156.07 29.6791C157.739 30.1333 159.407 30.6784 160.944 31.4959C163.096 32.6768 165.028 34.1302 166.74 35.9016C168.365 37.5367 169.77 39.3535 170.867 41.3519C171.877 43.1687 172.624 45.1672 173.151 47.211C173.722 49.4366 174.029 51.5259 173.985 53.6606ZM208.892 54.569C208.058 55.4774 207.18 56.4312 206.346 57.385C206.038 57.703 205.775 57.703 205.511 57.385C205.028 56.84 204.545 56.2495 204.062 55.7045C202.657 54.1148 201.252 52.5251 199.803 50.9809C198.266 49.3458 196.73 47.6652 195.061 46.121C193.173 44.3496 191.505 42.3057 189.309 40.9432C186.894 39.4443 184.699 37.5367 182.547 35.6745C179.781 33.3127 176.839 31.178 173.634 29.4974C171.877 28.5891 170.121 27.5444 168.321 26.7269C165.686 25.5914 163.008 24.4559 160.154 23.82C158.441 23.4112 156.729 23.0025 155.016 22.7299C153.304 22.4574 151.548 22.2303 149.791 22.412C147.815 22.5937 145.84 22.7299 143.908 23.0479C142.151 23.3658 140.439 23.82 138.726 24.3196C136.224 25.0463 133.852 26.091 131.438 27.1356C128.715 28.362 126.168 29.9062 123.578 31.4959C120.768 33.2218 118.089 35.1295 115.543 37.1733C113.874 38.4905 112.337 39.8985 110.757 41.3065C109.088 42.7599 107.463 44.2134 105.839 45.7576C104.434 47.1202 103.073 48.5282 101.755 49.9816C100.789 51.0263 99.9111 52.2526 98.9451 53.2973C97.9352 54.4328 96.7936 55.4774 95.7398 56.5675C95.3446 56.9308 94.9494 57.2942 94.5543 57.6575C94.1152 57.2488 93.7639 56.9308 93.4126 56.6129C92.754 55.977 92.0954 55.3411 91.3928 54.7053C91.0416 54.3873 91.0416 54.1148 91.305 53.7969C91.4807 53.5698 91.6563 53.3427 91.8319 53.1156C93.5444 51.3896 95.2129 49.7091 96.9253 47.9832C99.2525 45.6214 101.492 43.1687 103.863 40.8523C105.356 39.3535 106.98 37.9455 108.605 36.5375C109.703 35.5382 110.844 34.539 111.942 33.5398C113.698 31.9501 115.63 30.5421 117.562 29.2249C119.67 27.8169 121.822 26.3635 123.973 25.0918C126.608 23.5021 129.33 22.0032 132.184 20.8677C134.643 19.9139 137.102 18.9601 139.561 18.0517C141.361 17.3704 143.249 17.0071 145.137 16.78C146.235 16.6437 147.332 16.4166 148.474 16.3258C149.879 16.1895 151.328 16.0987 152.733 16.1441C155.543 16.2349 158.31 16.8254 160.988 17.7338C162.657 18.3242 164.325 19.0055 165.95 19.7777C168.54 20.9586 171.087 22.2303 173.634 23.5021C175.039 24.2288 176.444 25.0463 177.849 25.8639C179.474 26.7723 181.142 27.6807 182.767 28.6799C184.26 29.6337 185.753 30.6783 187.158 31.8138C188.914 33.2218 190.582 34.7661 192.295 36.3104C193.788 37.6275 195.325 38.8993 196.73 40.3073C199.276 42.8054 201.735 45.3943 204.238 47.9378C204.721 48.392 205.16 48.8916 205.643 49.3458C206.653 50.2996 207.356 51.4805 208.102 52.616C208.365 53.0247 208.629 53.4335 208.892 53.7969C209.112 54.0694 209.112 54.2965 208.892 54.569ZM272.121 15.6899C270.408 16.8254 268.696 17.9609 266.984 19.0964C265.183 20.2773 263.383 21.4128 261.583 22.6391C257.719 25.228 253.899 27.8623 250.035 30.4967C247.883 31.9501 245.776 33.4489 243.624 34.9024C240.99 36.6737 238.355 38.4451 235.764 40.171C234.623 40.9432 233.525 41.7607 232.384 42.5328C228.959 44.8492 225.534 47.1656 222.109 49.482C220.089 50.89 218.069 52.2526 216.006 53.6606C215.347 54.1148 215.127 54.024 214.6 53.3881C213.854 52.4343 213.108 51.5259 212.317 50.6175C211 49.0732 209.683 47.5744 208.409 46.0756C207.97 45.5305 207.97 45.4397 208.541 45.0763C210.473 43.6683 212.449 42.3057 214.381 40.9432C215.259 40.3073 216.137 39.6714 217.015 39.0355C218.245 38.1271 219.43 37.2188 220.616 36.3104C222.636 34.8115 224.7 33.3127 226.763 31.8593C228.256 30.8146 229.749 29.77 231.286 28.7707C232.647 27.8623 234.052 27.0902 235.457 26.1818C235.94 25.8639 236.423 25.5005 236.906 25.1372C236.994 25.0463 237.082 24.9101 237.213 24.7284C236.95 24.683 236.774 24.6376 236.599 24.6376C229.793 24.6376 222.943 24.6376 216.137 24.6376C214.513 24.6376 212.932 24.7284 211.307 24.7738C209.507 24.8192 207.663 24.9101 205.819 24.9101C203.184 24.9555 200.638 25.3188 198.135 26.091C197.213 26.3635 196.378 26.8631 195.5 27.2719C195.281 27.3627 195.105 27.5898 194.886 27.7261C195.5 28.4074 196.115 29.0887 196.73 29.6791C197.871 30.8146 199.057 31.9047 200.242 32.9947C200.506 33.2673 200.857 33.4489 201.121 33.7215C202.043 34.6753 202.921 35.7199 203.272 37.0825C203.404 37.673 203.711 38.218 203.887 38.763C203.975 39.1264 203.975 39.5806 203.931 39.9893C203.931 40.3981 203.711 40.5344 203.36 40.3527C202.833 40.0802 202.306 39.7622 201.911 39.3535C201.033 38.4905 200.242 37.5367 199.364 36.6283C198.442 35.7199 197.52 34.8569 196.554 33.994C195.764 33.2673 194.929 32.586 194.139 31.9047C192.295 30.3604 190.407 28.8616 188.563 27.3173C186.719 25.773 184.567 24.6376 182.547 23.3204C181.186 22.4574 179.825 21.5036 178.42 20.7315C177.015 19.9139 175.522 19.1418 174.029 18.4605C172.448 17.6884 170.867 17.0525 169.287 16.3258C168.628 16.0079 168.409 15.6899 168.057 14.4636C168.409 14.4636 168.672 14.4182 168.936 14.4182C170.341 14.4182 171.79 14.4182 173.239 14.4182C174.995 14.4182 176.751 14.4182 178.508 14.4182C181.581 14.3727 184.699 14.2819 187.772 14.2819C189.002 14.2819 190.187 14.3727 191.417 14.4182C192.778 14.4636 194.183 14.4182 195.544 14.4182C196.686 14.4182 197.827 14.509 198.969 14.5544C200.067 14.5544 201.164 14.509 202.262 14.5544C206.653 14.8269 211 14.7361 215.391 14.7361C217.015 14.7361 218.596 14.7815 220.221 14.8724C226.28 15.2357 232.296 14.9632 238.355 15.0086C247.839 15.054 257.28 15.0086 266.764 15.0086C268.432 15.0086 270.101 14.9178 271.726 14.8724C272.033 14.8724 272.34 14.8724 272.648 14.8724C272.648 15.4174 272.34 15.5082 272.121 15.6899ZM275.502 6.15182C275.414 6.78769 275.282 7.42357 275.151 8.05944C275.107 8.28654 275.063 8.51363 274.975 8.78615C274.843 9.42202 274.755 9.51286 274.141 9.51286C272.911 9.51286 271.638 9.51286 270.408 9.51286C258.685 9.51286 246.961 9.51286 235.238 9.51286C232.076 9.51286 228.871 9.6037 225.709 9.64912C224.612 9.64912 223.514 9.55828 222.416 9.64912C220.265 9.8308 218.069 9.78538 215.918 9.8308C214.337 9.87622 212.756 9.87622 211.176 9.92164C209.507 9.96706 207.839 10.1033 206.214 10.1487C205.292 10.1942 204.414 10.1942 203.492 10.1487C201.779 10.1033 200.067 9.96706 198.398 9.92164C197.037 9.87622 195.632 10.0125 194.271 9.96706C192.822 9.96706 191.373 9.8308 189.924 9.78538C188.958 9.73996 187.948 9.73996 186.982 9.73996C184.962 9.73996 182.942 9.78538 180.923 9.8308C174.6 9.87622 168.233 9.92164 161.91 10.0125C161.339 10.0125 160.768 10.1487 160.242 10.1487C156.992 10.1033 153.743 10.0579 150.494 10.0125C149.791 10.0125 149.089 10.0125 148.386 10.0125C145.269 9.96706 142.107 9.87622 138.99 9.78538C138.463 9.78538 137.892 9.8308 137.365 9.8308C133.238 9.78538 129.066 9.8308 124.939 9.6037C120.285 9.3766 115.674 9.55828 111.02 9.51286C109.791 9.51286 108.561 9.6037 107.288 9.64912C105.268 9.73996 103.292 9.73996 101.272 9.87622C100.306 9.96706 99.3842 10.0125 98.4182 9.92164C97.8913 9.87622 97.4083 9.96706 96.8814 10.0125C95.9154 10.0579 94.9933 10.1487 94.0274 10.1942C92.4027 10.2396 90.7342 10.2396 89.1096 10.1942C87.0898 10.1487 85.07 10.1942 83.0941 10.0125C81.5573 9.87622 80.0644 10.0579 78.5276 9.87622C75.1466 9.51286 71.8096 9.78538 68.4286 9.69454C67.7261 9.69454 67.6383 9.6037 67.6383 8.87699C67.6383 8.01402 67.6383 7.19647 67.6383 6.3335C67.6383 5.60678 67.7261 5.51595 68.4725 5.51595C68.6921 5.51595 68.9555 5.51595 69.1751 5.51595H97.4522C106.717 5.51595 115.982 5.51595 125.246 5.51595C127.793 5.51595 130.34 5.37969 132.887 5.37969C139.912 5.37969 146.937 5.37969 153.963 5.37969C156.334 5.37969 158.705 5.51595 161.032 5.51595C163.974 5.51595 166.916 5.42511 169.858 5.37969C172.229 5.33427 174.6 5.37969 176.927 5.19801C178.595 5.06175 180.264 5.01633 181.889 5.01633C182.898 5.01633 183.908 4.92549 184.918 5.01633C187.289 5.24343 189.704 5.15259 192.075 5.19801C193.612 5.24343 195.149 5.28885 196.686 5.33427C208.98 5.69762 221.275 5.37969 233.569 5.51595C235.589 5.51595 237.653 5.56137 239.672 5.51595C240.682 5.51595 241.692 5.33427 242.746 5.24343C242.878 5.24343 242.965 5.24343 243.097 5.24343C243.932 5.19801 244.766 5.10717 245.6 5.06175C246.127 5.01633 246.61 5.06175 247.137 5.06175C248.41 5.01633 249.684 4.92549 250.913 4.88007C251.703 4.88007 252.45 4.97091 253.24 5.01633C253.723 5.06175 254.162 5.01633 254.645 5.06175C255.436 5.10717 256.182 5.15259 256.928 5.19801C257.06 5.19801 257.148 5.19801 257.28 5.24343C258.509 5.28885 259.739 5.33427 261.012 5.42511C265.359 5.74304 269.706 5.47053 274.097 5.56137C274.272 5.56137 274.492 5.56137 274.624 5.47053C275.238 5.19801 275.59 5.47053 275.502 6.15182Z" fill="#B38A5A"/>
</svg>
