<svg width="294" height="158" viewBox="0 0 294 158" fill="none" xmlns="http://www.w3.org/2000/svg">
  <g opacity="0.5" filter="url(#filter0_f)">
    <path d="M286.98 10.6992C286.98 9.10948 286.278 7.88316 284.741 7.38354C284.083 7.15644 283.336 7.06561 282.59 7.02019C281.272 6.97477 279.955 7.02019 278.638 7.02019H177.516C172.73 7.02019 167.9 7.02019 163.114 7.02019C161.446 7.02019 159.777 7.11103 158.152 7.15644C157.494 7.15644 156.835 7.11103 156.177 7.15644C154.113 7.20186 152.049 7.33812 150.029 7.38354C144.541 7.42896 139.008 7.38354 133.52 7.38354C131.28 7.38354 129.085 7.42896 126.846 7.38354C125.836 7.38354 124.782 7.20186 123.772 7.20186C119.689 7.20186 115.605 7.20186 111.565 7.20186C109.282 7.20186 106.999 7.06561 104.672 7.06561C99.9296 7.06561 95.1875 7.15644 90.4015 7.20186C89.8307 7.20186 89.2598 7.20186 88.7329 7.20186C87.5035 7.24728 86.2741 7.38354 85.0446 7.42896C82.8053 7.5198 80.6098 7.56522 78.3705 7.61064C77.185 7.61064 76.0433 7.65606 74.8578 7.61064C74.4626 7.61064 74.1114 7.42896 73.7162 7.33812C73.5405 7.2927 73.321 7.20186 73.1454 7.24728C72.2672 7.33812 71.5207 7.79232 70.8182 8.33735C70.3352 8.70071 69.9839 9.20032 69.94 9.8362C69.8961 10.5175 69.8522 11.1988 69.8083 11.8801C69.7205 12.8339 69.7205 12.8339 68.7984 12.8339H39.8187H23.836C20.0598 12.8339 16.2398 12.8339 12.4636 12.8339C11.4976 12.8339 10.5316 12.8793 9.60956 13.0156C8.77529 12.9247 8.20448 13.3789 7.85321 14.1056C7.37022 15.1503 7.15067 16.2403 7.01895 17.3758C6.93113 17.9663 7.15067 18.4659 7.63367 18.8293C10.0926 20.646 12.5514 22.4628 15.0103 24.2342C16.1519 25.0517 17.3814 25.733 18.6108 26.5052C19.8403 27.2773 21.0697 28.1403 22.2992 28.9124C23.9677 29.957 25.4606 31.1834 26.8217 32.5914C27.6999 33.4998 28.6659 34.2265 29.6319 34.9532C31.2126 36.0887 32.7933 37.2242 34.3301 38.3596C36.5256 39.9493 38.721 41.5844 40.8725 43.2195C42.7606 44.6275 44.6926 46.0355 46.5806 47.3981C48.9956 49.1695 51.3667 50.9408 53.7817 52.7122C55.1428 53.7114 56.504 54.7107 57.8213 55.6645C59.5776 56.9362 61.3339 58.2534 63.0903 59.5251C64.4954 60.5244 65.9444 61.5236 67.3933 62.5228C67.7007 62.7499 67.9641 63.0224 68.3154 63.2041C69.0619 63.522 69.2814 64.1579 69.3692 64.8846C69.457 65.9293 69.457 66.9739 69.5449 68.0186C69.5888 68.6545 69.6766 69.3357 69.8961 69.9262C70.3791 71.2434 71.2573 72.1972 72.6624 72.4697C73.2332 72.5605 73.804 72.6968 74.3748 72.8785C77.1411 73.6506 79.8634 74.5136 82.6296 75.2403C84.6494 75.7853 86.6692 76.2395 88.689 76.7391C92.1578 77.6475 95.6266 78.5559 99.0954 79.3735C101.203 79.8731 103.223 80.5089 105.111 81.5082C107.35 82.6891 109.282 84.3242 110.951 86.3226C111.39 86.8677 111.829 87.4581 112.224 88.0486C113.102 89.502 113.849 91.0008 114.376 92.5905C114.859 94.044 115.21 95.5882 115.298 97.0871C115.385 98.5859 115.473 100.085 115.21 101.584C114.946 103.173 114.683 104.718 114.156 106.216C113.366 108.397 112.224 110.395 110.643 112.076C109.59 113.211 108.36 114.119 107.043 114.937C104.584 116.527 101.862 117.48 99.0515 118.162C96.2413 118.843 93.3873 118.888 90.4893 119.07C88.7329 119.161 86.9766 119.206 85.2202 119.252C82.1466 119.297 79.073 119.343 76.0433 119.388C75.1213 119.388 74.1992 119.388 73.321 119.388C73.0575 119.388 72.7502 119.433 72.4867 119.479C71.7403 119.524 70.9499 119.751 70.2035 119.615C69.2375 119.433 68.4911 119.615 67.8324 120.296C66.5152 121.614 65.2418 122.931 63.9245 124.293C61.773 126.519 59.6215 128.744 57.47 130.97C56.8114 131.651 56.504 132.469 56.504 133.423C56.504 134.967 56.504 136.511 56.504 138.055C56.504 138.6 56.4162 139.191 56.4162 139.736C56.4162 142.052 56.4162 144.369 56.4601 146.731C56.504 147.957 56.8553 149.047 57.9091 149.774C58.7433 150.319 59.6654 150.546 60.6314 150.591C63.5294 150.682 66.3834 150.5 69.2814 150.727C71.6086 150.909 73.8918 150.864 76.219 150.909C77.0971 150.909 77.9314 150.909 78.8096 150.909C80.6977 150.909 82.5418 150.909 84.4299 150.909C86.6692 150.909 88.9086 151 91.1918 151C93.7824 151 96.3291 150.955 98.9197 150.909C100.676 150.909 102.432 150.909 104.189 150.909C105.243 150.909 106.252 150.773 107.218 150.455C108.316 150.046 109.502 150.001 110.643 149.865C111.522 149.774 112.488 149.728 113.322 149.456C114.683 149.002 115.956 148.366 117.274 147.73C119.557 146.64 121.928 145.822 124.343 145.141C127.46 144.278 130.622 143.551 133.739 142.779C135.408 142.37 137.076 142.052 138.789 142.143C139.579 142.189 140.37 142.189 141.16 142.143C142.741 142.007 144.321 141.825 145.902 141.644C146.561 141.553 147.263 141.553 147.922 141.462C150.205 141.099 152.488 140.871 154.772 140.871C155.123 140.871 155.43 140.871 155.738 140.871C157.23 140.826 158.723 140.735 160.216 140.781C161.533 140.826 162.851 140.962 164.212 141.053C165.002 141.099 165.793 141.144 166.583 141.189C167.681 141.28 168.822 141.416 169.92 141.553C171.852 141.78 173.74 142.052 175.672 142.325C177.297 142.552 178.965 142.643 180.59 143.006C183.971 143.687 187.308 144.46 190.645 145.277C192.972 145.868 195.299 146.594 197.582 147.321C198.505 147.594 199.471 147.957 200.305 148.411C203.247 149.955 206.364 150.637 209.613 150.682C211.238 150.727 212.863 150.591 214.443 150.546C216.244 150.5 218 150.546 219.8 150.546C221.074 150.546 222.347 150.591 223.576 150.546C225.069 150.5 226.562 150.364 228.055 150.364C231.699 150.364 235.3 150.455 238.944 150.5C241.184 150.5 243.379 150.5 245.619 150.5C247.068 150.5 248.473 150.455 249.922 150.5C251.502 150.546 253.083 150.273 254.62 150.727C254.708 150.727 254.752 150.727 254.839 150.727C257.298 150.455 258.835 148.729 258.747 146.276C258.703 145.277 258.659 144.278 258.615 143.324C258.572 141.008 258.528 138.691 258.44 136.375C258.44 135.648 258.44 134.922 258.44 134.195C258.44 133.559 258.308 132.968 257.913 132.514C257.21 131.697 256.508 130.834 255.761 130.062C254.532 128.699 253.259 127.382 251.985 126.065C250.229 124.248 248.473 122.431 246.716 120.614C246.058 119.933 245.267 119.57 244.257 119.615C242.633 119.661 241.052 119.524 239.427 119.479C238.813 119.433 238.198 119.343 237.627 119.297C236.705 119.206 235.783 119.07 234.861 119.025C233.5 118.934 232.095 118.888 230.734 118.843C230.207 118.843 229.724 118.843 229.197 118.843C227.704 118.888 226.255 118.48 224.85 118.116C222.479 117.571 220.195 116.708 217.956 115.664C215.673 114.528 213.653 113.029 211.765 111.303C209.965 109.668 208.34 107.851 207.111 105.717C206.32 104.4 205.618 103.037 204.871 101.674C203.818 99.8122 203.291 97.8138 202.895 95.7245C202.544 94.044 202.588 92.3634 202.588 90.6829C202.544 88.4119 203.115 86.2772 203.817 84.1879C204.52 82.0532 205.662 80.191 207.023 78.4196C207.506 77.8292 207.945 77.1933 208.516 76.6937C209.789 75.5582 211.106 74.4681 212.555 73.5598C214.356 72.4697 216.112 71.2434 217.868 70.0625C219.712 68.7907 221.6 67.6098 223.445 66.2926C225.947 64.4759 228.406 62.5228 230.909 60.6606C232.665 59.3435 234.466 58.0717 236.354 56.9816C237.891 56.1187 239.427 55.2557 240.92 54.3019C243.204 52.8485 245.443 51.3496 247.682 49.8508C251.458 47.3073 255.191 44.7184 258.967 42.1295C262.655 39.6314 266.343 37.0879 270.032 34.5898C273.018 32.5459 275.959 30.5021 278.901 28.4582C280.394 27.4135 281.931 26.4143 283.292 25.0971C284.214 24.1433 285.224 23.2804 286.454 22.7353C286.893 22.5537 286.98 22.1449 286.98 21.7361C286.98 18.0571 287.024 14.3781 286.98 10.6992ZM69.018 56.9816C69.018 57.2087 68.9301 57.5721 68.7545 57.6629C68.6228 57.7538 68.2715 57.6175 68.0959 57.4813C65.9004 55.8916 63.7489 54.2565 61.5974 52.6668C60.1923 51.6221 58.6994 50.6229 57.2943 49.5328C54.5281 47.489 51.7619 45.4451 48.9956 43.3558C46.6685 41.5844 44.3413 39.8131 41.9702 38.0417C40.3017 36.77 38.6332 35.5436 37.0086 34.2719C36.8768 34.181 36.7451 34.0902 36.5695 34.0448C36.6134 33.954 36.6573 33.8631 36.7012 33.7723C36.9207 33.7269 37.1403 33.6814 37.3598 33.636C40.2578 33.4998 43.0679 33.7269 45.7903 34.7715C47.8979 35.5891 50.0933 36.1341 52.0692 37.2242C53.606 38.0417 55.055 38.9955 56.3723 40.2218C57.6017 41.3573 58.8751 42.4928 60.1923 43.5375C61.7291 44.7638 63.5733 43.9462 64.3636 42.7199C64.8905 41.9478 64.7588 41.0394 64.6271 40.1764C64.4954 39.1772 64.188 38.2234 64.2319 37.1787C64.2758 35.9978 64.5393 34.9532 65.1979 33.9994C65.7687 33.1818 66.2956 32.3188 66.8664 31.5013C67.2616 30.9563 67.7446 30.5021 68.1837 30.0025C68.3154 29.8662 68.6228 29.7754 68.7106 29.8662C68.8862 29.957 69.018 30.2296 69.018 30.4112C69.0619 31.8192 69.018 33.2272 69.018 34.6352V53.5298C69.0619 54.7107 69.0619 55.8461 69.018 56.9816ZM68.974 22.5082C67.5251 22.5082 66.0761 22.5082 64.6271 22.5082C62.8268 22.5537 60.9827 22.5991 59.1385 22.6445C59.0068 22.6445 58.8751 22.6445 58.6994 22.6445C54.5281 22.6899 50.3568 22.7353 46.1855 22.7808C44.473 22.7808 42.7167 22.7808 41.0042 22.7808C37.0086 22.8716 32.969 22.917 28.9294 23.0079C26.8217 23.0533 24.7141 23.0987 22.6065 23.1441C21.904 23.1441 21.2893 22.917 20.7184 22.4628C19.1816 21.2819 17.6009 20.1464 16.0641 18.9655C15.9763 18.9201 15.8885 18.8747 15.8446 18.7838C15.7568 18.6022 15.669 18.4205 15.5372 18.2388C15.7129 18.148 15.8885 18.0117 16.0641 17.9663C16.2837 17.9209 16.5471 17.9663 16.7667 17.9663H32.5299C37.6233 17.9663 42.7606 18.1025 47.854 17.9209C51.191 17.83 54.5281 17.7846 57.9091 17.7846C58.9629 17.7846 60.0167 17.7846 61.0705 17.6938C62.6073 17.5575 64.1441 17.6483 65.7248 17.6483C66.6469 17.6483 67.569 17.6938 68.535 17.7392C69.5009 17.7846 69.6766 18.0117 69.7644 18.9201C69.8083 19.6468 69.8961 20.4189 69.9839 21.1457C70.0718 21.9632 69.94 22.5082 68.974 22.5082ZM104.189 75.5128C94.2654 73.0147 84.3421 70.5621 74.3309 68.064C74.3309 67.7461 74.287 67.4735 74.287 67.201C74.287 65.8384 74.287 64.4759 74.287 63.1133C74.287 62.2049 74.3309 62.1595 75.1652 62.1595C78.4583 62.1595 81.7076 62.1595 85.0007 62.1595C87.1522 62.1595 89.3037 62.0686 91.4553 62.0232C92.2895 61.9778 92.9921 62.2503 93.519 62.8862C94.002 63.4766 94.485 64.1125 95.0119 64.703C95.2753 65.0663 95.5827 65.3843 95.89 65.7476C96.5487 66.4743 97.2073 67.201 97.822 67.9277C98.7441 68.9724 99.6223 70.017 100.544 71.0617C100.632 71.1525 100.72 71.2888 100.852 71.3796C101.906 72.5151 102.959 73.6506 104.013 74.7861C104.145 74.9223 104.233 75.104 104.364 75.2857C104.277 75.422 104.233 75.4674 104.189 75.5128ZM79.4682 31.7738C79.4682 30.6383 79.5999 29.5483 79.6438 28.4582C79.6878 26.6414 79.6438 24.7792 79.6438 22.917C79.6438 22.054 79.6438 22.0086 80.4781 21.8724C81.4441 21.7361 82.454 21.7361 83.42 21.7815C84.3421 21.7815 85.2202 21.9178 86.1423 21.9178C99.754 21.9178 113.366 21.9178 126.977 21.9178C128.119 21.9178 129.261 21.9178 130.446 21.9178C132.817 21.8724 135.188 21.7815 137.515 21.7815C138.174 21.7815 138.833 21.9178 139.491 22.0086C139.491 22.054 139.535 22.1449 139.535 22.2357C139.14 22.6899 138.569 22.917 138.086 23.1441C135.891 24.1433 133.651 25.0517 131.5 26.1872C129.041 27.459 126.758 29.0486 124.562 30.7292C122.191 32.5459 119.864 34.499 117.274 36.0432C115.605 37.0425 114.156 38.2688 112.707 39.4951C110.863 41.0848 109.107 42.7653 107.394 44.5367C106.121 45.8539 104.804 47.1256 103.486 48.3974C103.047 48.8061 102.564 49.1695 101.993 49.6691C101.906 48.897 101.686 48.3519 101.818 47.6706C101.949 47.1256 101.949 46.5806 101.993 46.0355C102.213 44.4004 103.179 43.3104 104.321 42.2657C104.496 42.084 104.716 41.9024 104.891 41.7661C105.418 41.2665 105.945 40.8123 106.428 40.3127C106.911 39.8585 107.306 39.3134 107.745 38.8138C108.887 37.5875 110.029 36.4066 111.214 35.2257C112.092 34.3173 113.014 33.4543 113.893 32.5914C114.068 32.4097 114.2 32.228 114.376 32.0009C114.376 31.9555 114.332 31.9101 114.332 31.8192H112.795C108.931 31.8192 105.111 31.8192 101.247 31.8647C98.9636 31.9101 96.6804 31.9101 94.3972 32.1372C91.8505 32.3643 89.655 33.4543 88.1182 35.6345C86.6253 37.6784 85.5715 39.9947 84.7812 42.402C84.3421 43.81 83.8591 45.218 83.42 46.5806C83.2883 47.0348 83.0248 47.1256 82.6296 47.0802C81.9271 46.9893 81.2685 46.8531 80.5659 46.8077C79.8195 46.7622 79.2926 46.3535 79.2926 45.4905C79.3365 43.4466 79.3804 41.3573 79.4243 39.3134C79.4243 38.3596 79.4682 37.4058 79.4682 36.4974C79.4682 34.8623 79.4243 33.3181 79.4682 31.7738ZM64.0563 131.152C66.12 129.017 68.1398 126.882 70.2474 124.793C70.9938 124.021 72.0037 123.975 73.0136 124.066C73.2332 124.112 73.4966 124.157 73.7162 124.157C76.0433 124.202 78.3705 124.293 80.6537 124.293C81.5319 124.293 82.3662 124.157 83.2444 124.112C84.386 124.066 85.5276 124.021 86.6692 124.021C87.6352 124.021 88.6012 124.021 89.5672 123.975C91.2357 123.93 92.9482 123.975 94.6167 123.794C96.0657 123.612 97.5147 123.203 98.9197 122.84C101.51 122.113 104.013 121.296 106.604 120.524C107.789 120.16 108.755 119.433 109.765 118.798C111.214 117.935 112.488 116.845 113.717 115.709C114.902 114.574 115.825 113.256 116.571 111.803C117.23 110.531 117.844 109.259 118.371 107.942C118.898 106.534 119.118 104.99 119.249 103.491C119.337 102.855 119.513 102.219 119.776 101.629C120.259 100.63 120.347 99.5397 120.303 98.4496C120.259 97.5413 120.084 96.6783 119.996 95.8153C119.908 94.4073 119.293 93.181 118.766 91.9092C118.371 90.9554 117.932 90.0925 117.537 89.1386C117.186 88.3211 117.449 87.5035 118.152 86.9585C121.84 89.8199 125.616 92.5905 129.612 94.9978C133.564 97.405 137.735 99.4489 142.214 101.129C141.467 102.038 140.853 102.764 140.106 103.31C138.877 104.173 137.559 104.899 136.286 105.762C134.354 107.079 132.422 108.397 130.534 109.759C129.348 110.622 128.295 111.621 127.153 112.575C127.065 112.666 126.977 112.757 126.89 112.802C125.265 113.574 124.123 114.892 122.894 116.163C122.191 116.89 121.357 117.526 120.698 118.298C119.776 119.343 118.942 120.478 118.02 121.568C117.8 121.841 117.625 122.113 117.361 122.34C115.649 123.839 113.805 125.111 111.829 126.246C108.799 127.972 105.594 129.017 102.345 129.925C100.281 130.516 98.1733 131.106 96.0657 131.515C94.0459 131.924 91.9822 132.242 89.8746 132.105C88.6012 132.015 87.284 131.924 86.0106 131.969C84.6933 132.015 83.3761 132.151 82.0149 132.242C81.7515 132.242 81.488 132.242 81.2246 132.242C78.7218 132.242 76.2629 132.242 73.7601 132.242C70.6865 132.242 67.569 132.242 64.4954 132.242C64.188 132.242 63.7928 132.378 63.6172 132.015C63.4416 131.606 63.8367 131.379 64.0563 131.152ZM175.189 129.562C175.101 130.788 174.882 131.969 174.926 133.241C174.926 134.331 174.75 135.467 174.618 136.557C174.574 137.011 174.223 137.011 173.872 137.011C172.555 136.92 171.281 136.829 169.964 136.693C168.954 136.602 167.988 136.466 166.978 136.33C166.32 136.239 165.617 136.102 164.958 136.102C162.807 136.057 160.655 136.057 158.504 136.102C156.879 136.102 155.298 136.193 153.674 136.239C153.059 136.239 152.4 136.102 151.786 136.148C151.083 136.148 150.337 136.239 149.634 136.284C148.888 136.375 148.141 136.511 147.395 136.557C146.253 136.602 145.156 136.784 144.058 137.011C143.267 137.192 142.477 137.238 141.687 137.238C139.93 137.238 138.218 137.51 136.549 137.828C134.31 138.237 132.071 138.737 129.831 139.191C129.48 139.282 129.129 139.418 128.778 139.554C126.187 140.508 123.596 141.326 120.874 141.78C120.303 141.871 119.776 141.962 119.206 142.052C117.625 142.279 116.22 143.052 114.771 143.642C113.19 144.278 111.741 145.186 110.073 145.504C109.414 145.641 108.711 145.731 108.053 145.731C104.54 145.731 101.027 145.731 97.5147 145.731C95.7583 145.731 93.9581 145.913 92.2017 146.004C92.1139 146.004 92.07 146.004 91.9822 146.004C89.4794 146.049 86.9766 146.14 84.4738 146.14C82.1027 146.14 79.7317 146.049 77.4045 146.004C76.0433 145.958 74.6383 145.868 73.2771 145.868C69.6766 145.822 66.0761 145.777 62.4756 145.731C62.2121 145.731 61.9926 145.686 61.5974 145.686C61.5535 145.005 61.4657 144.369 61.4218 143.733C61.3339 142.279 61.29 140.826 61.29 139.373C61.29 138.419 61.3779 137.51 61.4218 136.557C61.4657 136.102 61.773 135.784 62.2999 135.648C62.739 135.557 63.1781 135.512 63.6172 135.512C65.2857 135.512 66.9982 135.603 68.6667 135.603C70.4669 135.603 72.2672 135.512 74.0675 135.512C76.702 135.512 79.2926 135.603 81.9271 135.648C82.8492 135.694 83.7713 135.784 84.7373 135.83C85.4398 135.875 86.1862 135.784 86.8888 135.784C88.206 135.83 89.5233 135.875 90.7966 135.921C91.0162 135.921 91.2357 135.921 91.4114 135.921C93.0799 135.921 94.7923 135.875 96.4609 135.921C98.8758 136.012 101.159 136.693 103.135 138.192C103.838 138.737 104.496 139.418 105.199 140.054C106.077 140.871 106.911 141.689 107.833 142.507C108.228 142.37 108.272 141.962 108.448 141.644C109.37 139.781 110.204 137.874 111.214 136.012C112.005 134.513 112.883 133.014 113.805 131.606C114.771 130.152 115.825 128.79 117.098 127.609C117.888 126.928 118.547 126.11 119.293 125.383C122.06 122.749 124.87 120.251 128.075 118.207C132.554 115.391 137.252 113.12 142.389 111.803C144.409 111.303 146.429 110.804 148.493 110.44C149.854 110.213 151.259 110.168 152.664 110.077C154.596 109.986 156.528 109.986 158.46 109.895C160.524 109.805 162.543 110.168 164.563 110.713C166.363 111.258 168.076 111.985 169.657 113.075C170.974 113.983 171.94 115.209 172.774 116.572C173.652 118.025 174.135 119.615 174.53 121.296C174.75 122.249 175.057 123.203 175.233 124.157C175.365 124.793 175.496 125.474 175.496 126.156C175.453 127.336 175.233 128.427 175.189 129.562ZM172.335 102.628C171.413 102.583 170.447 102.356 169.525 102.219C169.525 102.129 169.481 102.083 169.481 101.992C180.063 98.7222 189.415 93.0447 198.109 86.0955C198.505 86.5497 198.68 87.0039 198.68 87.5035C198.68 88.2303 198.68 88.957 198.68 89.6837C198.68 89.7745 198.68 89.8199 198.68 89.9108C198.285 90.7738 198.241 91.7276 198.065 92.6359C198.022 92.9539 197.758 93.2264 197.539 93.4535C195.694 94.9978 193.85 96.5874 191.787 97.8138C188.406 99.9031 184.805 101.356 180.985 102.129C178.087 102.674 175.189 102.764 172.335 102.628ZM200.129 143.142C199.602 142.961 199.251 142.824 198.9 142.688C195.563 141.371 192.094 140.417 188.625 139.554C187.22 139.191 185.771 138.918 184.322 138.555C183.62 138.373 183.62 138.373 183.62 137.647C183.62 135.467 183.62 133.286 183.62 131.106V121.296C183.62 121.159 183.62 121.023 183.62 120.841C183.663 120.115 183.883 119.978 184.498 120.296C185.991 121.023 187.352 121.932 188.625 123.022C189.811 124.021 190.996 125.065 192.05 126.246C193.631 128.018 195.036 129.925 196.265 132.015C197.539 134.149 198.548 136.375 199.295 138.782C199.646 139.872 199.866 141.008 200.085 142.143C200.173 142.416 200.129 142.688 200.129 143.142ZM251.985 135.603C252.556 135.603 253.127 135.784 253.698 135.966C253.873 136.012 254.049 136.284 254.093 136.466C254.181 136.965 254.225 137.465 254.225 137.965C254.181 139.509 254.137 141.053 254.093 142.597C254.093 143.324 254.093 144.051 254.093 144.778C254.093 145.504 253.961 145.641 253.259 145.641C250.756 145.641 248.297 145.641 245.794 145.641H245.355C242.94 145.641 240.481 145.641 238.066 145.641C234.51 145.686 230.953 145.868 227.396 145.731C221.425 145.504 215.453 145.686 209.482 145.641C208.691 145.641 208.604 145.55 208.56 144.732C208.516 143.869 208.735 143.052 209.13 142.279C209.877 140.735 210.931 139.509 212.38 138.555C213.346 137.919 214.268 137.192 215.409 136.738C216.771 136.239 218.22 135.921 219.669 135.921C222.215 135.875 224.762 135.921 227.353 135.921C231.304 135.921 235.256 135.921 239.208 135.921C240.613 135.921 242.018 135.784 243.423 135.784C246.233 135.648 249.131 135.603 251.985 135.603ZM205.398 111.485C205.969 112.393 206.715 113.256 207.506 114.029C208.428 114.937 209.394 115.754 210.404 116.527C213.038 118.525 215.936 120.069 218.966 121.296C220.766 121.977 222.654 122.431 224.498 122.885C226.65 123.43 228.889 123.521 230.997 124.339C231.173 124.43 231.348 124.43 231.524 124.43C233.631 124.475 235.739 124.52 237.847 124.611C238.549 124.611 239.252 124.748 239.954 124.793C240.701 124.838 241.447 124.793 242.194 124.793C242.94 124.793 243.555 125.02 244.082 125.565C244.872 126.428 245.706 127.246 246.497 128.109C246.672 128.29 246.804 128.517 247.024 128.835C246.628 128.881 246.365 128.972 246.145 128.972C245.092 128.926 244.038 129.062 243.028 129.244C242.633 129.335 242.194 129.289 241.755 129.289C240.35 129.289 238.901 129.335 237.452 129.289C236.178 129.244 234.905 129.108 233.631 129.017C232.929 128.972 232.182 128.926 231.48 128.835C230.338 128.744 229.197 128.608 228.055 128.472C226.299 128.245 224.542 128.018 222.786 127.745C221.732 127.564 220.678 127.246 219.669 126.973C216.244 126.019 212.994 124.52 209.965 122.658C208.516 121.795 207.198 120.705 205.881 119.615C204.827 118.752 203.861 117.708 202.939 116.708C201.446 115.164 200.305 113.347 199.339 111.394C198.022 108.805 197.319 106.035 196.748 103.219C196.529 102.174 196.529 101.175 197.099 100.266C197.363 99.8122 197.978 99.4943 198.505 99.2672C198.812 99.0855 198.988 99.4489 199.119 99.7214C199.339 100.266 199.558 100.857 199.778 101.402C199.91 101.765 200.085 102.083 200.349 102.401C201.359 103.673 201.886 105.172 202.632 106.58C203.466 108.169 204.388 109.85 205.398 111.485ZM208.823 69.1541C207.725 70.335 206.584 71.4705 205.442 72.6514C205.223 72.8785 205.003 73.1056 204.827 73.3327C204.125 74.5136 203.203 75.5128 202.149 76.3758C201.315 77.1025 200.568 77.92 199.734 78.6922C198.636 79.6914 197.495 80.6906 196.353 81.6444C193.938 83.6883 191.26 85.3234 188.625 87.0039C186.913 88.0486 185.244 89.2295 183.488 90.2741C182.478 90.91 181.424 91.5005 180.326 92.0455C177.867 93.2264 175.365 94.4073 172.862 95.5428C170.886 96.4058 168.866 97.2233 166.846 97.9955C165.793 98.4042 164.695 98.6313 163.553 98.4951C163.422 98.4951 163.29 98.4951 163.202 98.4951C162.016 98.0409 160.831 98.4496 159.689 98.5405C159.514 98.5405 159.382 98.6313 159.206 98.6313C157.274 98.6767 155.342 98.7222 153.41 98.4042C152.313 98.2225 151.215 98.0863 150.161 98.0409C148.141 97.9046 146.165 97.5413 144.277 96.8145C142.521 96.1787 140.721 95.5882 139.008 94.8615C136.154 93.6806 133.344 92.3634 130.754 90.5921C129.261 89.5928 127.856 88.4119 126.363 87.3219C125.089 86.3681 123.772 85.5051 122.543 84.5059C121.181 83.4612 119.864 82.3257 118.503 81.2356C117.317 80.2818 116.132 79.2826 114.946 78.2834C114.112 77.6021 113.278 76.8754 112.531 76.1033C110.907 74.5136 109.326 72.9239 107.745 71.3342C107.043 70.6075 106.296 69.9262 105.55 69.1995C105.067 68.6999 105.067 68.4274 105.506 67.8823C106.165 67.0194 106.823 66.111 107.438 65.248C107.57 65.0663 107.701 64.8392 107.789 64.6121C107.877 64.6575 107.965 64.6575 108.053 64.703C108.404 65.1571 108.799 65.6113 109.15 66.0655C109.809 67.0648 110.643 67.9277 111.565 68.6999C112.268 69.2903 112.927 70.017 113.629 70.6529C115.385 72.288 117.098 73.9685 118.942 75.5128C121.577 77.6475 124.255 79.7368 126.933 81.7353C130.534 84.415 134.398 86.6406 138.394 88.5482C140.94 89.7745 143.619 90.8192 146.341 91.5459C148.097 92.0001 149.81 92.5451 151.61 92.7268C152.4 92.8176 153.191 92.9539 153.981 92.9539C155.518 92.9993 157.055 93.0447 158.592 92.9539C160.919 92.7722 163.246 92.5905 165.529 92.1818C167.461 91.8184 169.305 91.1825 171.193 90.5467C174.047 89.5928 176.77 88.2757 179.404 86.8223C180.151 86.4135 180.853 85.8684 181.512 85.278C182.478 84.415 183.576 83.6883 184.673 83.0524C186.693 81.8715 188.757 80.736 190.689 79.4643C192.27 78.3742 193.719 77.0571 195.211 75.8307C197.319 74.1502 199.075 72.1063 201.007 70.2441C201.886 69.3812 202.895 68.6544 203.817 67.8369C204.3 67.4281 204.74 66.9285 205.223 66.5197C205.662 66.111 206.145 65.7022 206.628 65.248C206.803 65.3842 206.979 65.4751 207.111 65.6568C207.725 66.3381 208.34 66.9739 208.911 67.7006C209.262 68.2457 209.218 68.7453 208.823 69.1541ZM127.416 61.2057C127.504 63.5675 127.724 65.8839 128.339 68.1548C128.734 69.6083 129.129 71.0617 129.7 72.4243C130.358 74.014 131.193 75.5582 131.983 77.0571C132.466 77.9654 133.037 78.783 133.608 79.6006C133.695 79.7368 133.739 79.8731 133.827 80.0547C133.783 80.1002 133.739 80.1456 133.695 80.2364C133.212 80.0093 132.729 79.7822 132.29 79.5097C131.105 78.7376 129.875 77.92 128.734 77.0571C126.933 75.6945 125.221 74.2865 123.465 72.8785C121.928 71.6521 120.435 70.4712 118.942 69.2449C118.152 68.609 117.405 67.9732 116.703 67.2919C115.781 66.3381 115.254 65.1117 115.078 63.7491C114.99 63.1133 114.99 62.432 114.902 61.7961C114.815 61.024 115.034 60.2973 115.342 59.616C116.264 57.6175 117.361 55.7553 118.679 53.984C119.82 52.4851 121.181 51.3496 122.718 50.3504C124.255 49.3057 125.704 48.0794 127.197 46.9439C128.295 46.1264 129.348 45.2634 130.446 44.4459C130.754 44.2188 131.105 44.0825 131.456 43.9462C131.588 43.9008 131.851 43.9008 131.895 43.9917C131.983 44.1279 131.939 44.355 131.895 44.4913C131.412 45.4905 130.885 46.4443 130.446 47.489C129.261 50.0779 128.382 52.7576 127.943 55.6191C127.504 57.4358 127.329 59.298 127.416 61.2057ZM186.957 60.161C186.825 58.8893 186.737 57.6175 186.517 56.3458C186.342 55.3011 186.122 54.211 185.815 53.1664C185.42 51.8038 184.937 50.3958 184.41 49.0786C183.883 47.8069 183.18 46.5806 182.522 45.3542C182.346 45.0363 182.214 44.673 182.083 44.355C182.697 43.7191 183.356 43.9462 183.883 44.3096C185.112 45.1271 186.298 46.081 187.44 46.9893C188.537 47.8523 189.635 48.7153 190.689 49.6237C191.523 50.3504 192.313 51.2134 193.148 51.9855C193.719 52.5305 194.377 53.0301 194.992 53.5752C195.519 54.0294 196.046 54.4836 196.529 54.9378C197.89 56.2549 198.9 57.7538 199.207 59.6614C199.339 60.3881 199.383 61.1602 199.295 61.8869C199.119 63.3858 198.68 64.8392 197.934 66.2018C197.056 67.7915 195.826 68.9724 194.465 70.1079C192.84 71.4705 191.304 72.8785 189.679 74.2411C188.318 75.3765 187 76.512 185.508 77.375C184.586 77.92 183.707 78.5105 182.873 79.1464C182.39 79.5097 181.731 79.6006 181.292 80.191C181.117 80.4181 180.809 80.3727 180.634 80.1002C180.414 79.8731 180.546 79.6914 180.678 79.4643C181.468 78.2834 182.346 77.1025 183.049 75.8762C184.41 73.6052 185.332 71.1071 185.947 68.5182C186.254 67.2919 186.517 66.0201 186.737 64.7484C186.869 64.0217 186.869 63.2949 186.913 62.5682C186.957 62.0686 187 61.569 187.044 61.0694C186.957 60.7515 187 60.4335 186.957 60.161ZM180.985 60.6606C180.941 62.7953 180.678 64.8846 180.151 66.9739C179.712 68.6545 179.273 70.2896 178.526 71.8338C177.692 73.6506 176.682 75.422 175.409 76.9662C173.872 78.8738 172.115 80.5089 170.008 81.7807C169.349 82.1441 169.261 82.144 168.998 81.4173C168.954 81.2811 168.91 81.1448 168.822 81.0086C168.032 79.9185 168.164 78.6922 168.339 77.4658C168.427 76.8754 168.515 76.2849 168.515 75.6491C168.559 74.2865 168.691 72.9239 168.647 71.6067C168.603 70.6983 168.295 69.8354 168.076 68.927C168.032 68.7907 167.944 68.6999 167.812 68.5182C167.286 69.0632 166.846 69.5628 166.363 70.017C164.475 71.8338 162.324 73.3327 159.821 74.0594C157.977 74.6044 156.089 74.6044 154.245 73.7414C152.971 73.151 151.654 72.6514 150.468 71.8792C148.624 70.7438 147.175 69.1995 146.034 67.2919C145.024 65.5659 144.497 63.7037 144.19 61.7053C143.707 58.7984 144.541 56.2095 145.946 53.7569C146.605 52.5759 147.439 51.5313 148.405 50.5775C148.844 50.1687 149.283 49.7599 149.81 49.3057C148.273 48.7607 146.78 48.6245 145.287 48.5336C143.794 48.4428 142.301 48.5336 140.809 48.6244C139.36 48.7607 137.911 49.0332 136.286 49.2603C136.418 48.897 136.462 48.6699 136.593 48.4428C137.691 46.4897 138.877 44.6275 140.326 42.947C141.16 41.9932 142.038 41.1757 142.96 40.3581C144.936 38.723 147.088 37.5875 149.634 37.1333C150.205 37.0425 150.776 36.7245 151.391 36.5883C152.488 36.3612 153.586 36.1341 154.684 36.0432C155.65 35.9524 156.616 35.8616 157.538 35.907C159.426 35.9524 161.27 36.1795 163.07 36.6791C164.739 37.1333 166.407 37.6784 167.944 38.4959C170.096 39.6768 172.028 41.1302 173.74 42.9016C175.365 44.5367 176.77 46.3535 177.867 48.3519C178.877 50.1687 179.624 52.1672 180.151 54.211C180.722 56.4366 181.029 58.5259 180.985 60.6606ZM215.892 61.569C215.058 62.4774 214.18 63.4312 213.346 64.385C213.038 64.703 212.775 64.703 212.511 64.385C212.028 63.84 211.545 63.2495 211.062 62.7045C209.657 61.1148 208.252 59.5251 206.803 57.9809C205.266 56.3458 203.73 54.6652 202.061 53.121C200.173 51.3496 198.505 49.3057 196.309 47.9432C193.894 46.4443 191.699 44.5367 189.547 42.6745C186.781 40.3127 183.839 38.178 180.634 36.4974C178.877 35.5891 177.121 34.5444 175.321 33.7269C172.686 32.5914 170.008 31.4559 167.154 30.82C165.441 30.4112 163.729 30.0025 162.016 29.7299C160.304 29.4574 158.548 29.2303 156.791 29.412C154.815 29.5937 152.84 29.7299 150.908 30.0479C149.151 30.3658 147.439 30.82 145.726 31.3196C143.224 32.0463 140.852 33.091 138.438 34.1356C135.715 35.362 133.168 36.9062 130.578 38.4959C127.768 40.2218 125.089 42.1295 122.543 44.1733C120.874 45.4905 119.337 46.8985 117.757 48.3065C116.088 49.7599 114.463 51.2134 112.839 52.7576C111.434 54.1202 110.073 55.5282 108.755 56.9816C107.789 58.0263 106.911 59.2526 105.945 60.2973C104.935 61.4328 103.794 62.4774 102.74 63.5675C102.345 63.9308 101.949 64.2942 101.554 64.6575C101.115 64.2488 100.764 63.9308 100.413 63.6129C99.754 62.977 99.0954 62.3411 98.3928 61.7053C98.0416 61.3873 98.0416 61.1148 98.305 60.7969C98.4807 60.5698 98.6563 60.3427 98.8319 60.1156C100.544 58.3896 102.213 56.7091 103.925 54.9832C106.252 52.6214 108.492 50.1687 110.863 47.8523C112.356 46.3535 113.98 44.9455 115.605 43.5375C116.703 42.5382 117.844 41.539 118.942 40.5398C120.698 38.9501 122.63 37.5421 124.562 36.2249C126.67 34.8169 128.822 33.3635 130.973 32.0918C133.608 30.5021 136.33 29.0032 139.184 27.8677C141.643 26.9139 144.102 25.9601 146.561 25.0517C148.361 24.3704 150.249 24.0071 152.137 23.78C153.235 23.6437 154.332 23.4166 155.474 23.3258C156.879 23.1895 158.328 23.0987 159.733 23.1441C162.543 23.2349 165.31 23.8254 167.988 24.7338C169.657 25.3242 171.325 26.0055 172.95 26.7777C175.54 27.9586 178.087 29.2303 180.634 30.5021C182.039 31.2288 183.444 32.0463 184.849 32.8639C186.474 33.7723 188.142 34.6807 189.767 35.6799C191.26 36.6337 192.753 37.6783 194.158 38.8138C195.914 40.2218 197.582 41.7661 199.295 43.3104C200.788 44.6275 202.325 45.8993 203.73 47.3073C206.276 49.8054 208.735 52.3943 211.238 54.9378C211.721 55.392 212.16 55.8916 212.643 56.3458C213.653 57.2996 214.356 58.4805 215.102 59.616C215.365 60.0247 215.629 60.4335 215.892 60.7969C216.112 61.0694 216.112 61.2965 215.892 61.569ZM279.121 22.6899C277.408 23.8254 275.696 24.9609 273.984 26.0964C272.183 27.2773 270.383 28.4128 268.583 29.6391C264.719 32.228 260.899 34.8623 257.035 37.4967C254.883 38.9501 252.776 40.4489 250.624 41.9024C247.99 43.6737 245.355 45.4451 242.764 47.171C241.623 47.9432 240.525 48.7607 239.384 49.5328C235.959 51.8492 232.534 54.1656 229.109 56.482C227.089 57.89 225.069 59.2526 223.006 60.6606C222.347 61.1148 222.127 61.024 221.6 60.3881C220.854 59.4343 220.108 58.5259 219.317 57.6175C218 56.0732 216.683 54.5744 215.409 53.0756C214.97 52.5305 214.97 52.4397 215.541 52.0763C217.473 50.6683 219.449 49.3057 221.381 47.9432C222.259 47.3073 223.137 46.6714 224.015 46.0355C225.245 45.1271 226.43 44.2188 227.616 43.3104C229.636 41.8115 231.7 40.3127 233.763 38.8593C235.256 37.8146 236.749 36.77 238.286 35.7707C239.647 34.8623 241.052 34.0902 242.457 33.1818C242.94 32.8639 243.423 32.5005 243.906 32.1372C243.994 32.0463 244.082 31.9101 244.213 31.7284C243.95 31.683 243.774 31.6376 243.599 31.6376C236.793 31.6376 229.943 31.6376 223.137 31.6376C221.513 31.6376 219.932 31.7284 218.307 31.7738C216.507 31.8192 214.663 31.9101 212.819 31.9101C210.184 31.9555 207.638 32.3188 205.135 33.091C204.213 33.3635 203.378 33.8631 202.5 34.2719C202.281 34.3627 202.105 34.5898 201.886 34.7261C202.5 35.4074 203.115 36.0887 203.73 36.6791C204.871 37.8146 206.057 38.9047 207.242 39.9947C207.506 40.2673 207.857 40.4489 208.121 40.7215C209.043 41.6753 209.921 42.7199 210.272 44.0825C210.404 44.673 210.711 45.218 210.887 45.763C210.975 46.1264 210.975 46.5806 210.931 46.9893C210.931 47.3981 210.711 47.5344 210.36 47.3527C209.833 47.0802 209.306 46.7622 208.911 46.3535C208.033 45.4905 207.242 44.5367 206.364 43.6283C205.442 42.7199 204.52 41.8569 203.554 40.994C202.764 40.2673 201.929 39.586 201.139 38.9047C199.295 37.3604 197.407 35.8616 195.563 34.3173C193.719 32.773 191.567 31.6376 189.547 30.3204C188.186 29.4574 186.825 28.5036 185.42 27.7315C184.015 26.9139 182.522 26.1418 181.029 25.4605C179.448 24.6884 177.867 24.0525 176.287 23.3258C175.628 23.0079 175.409 22.6899 175.057 21.4636C175.409 21.4636 175.672 21.4182 175.936 21.4182C177.341 21.4182 178.79 21.4182 180.239 21.4182C181.995 21.4182 183.751 21.4182 185.508 21.4182C188.581 21.3727 191.699 21.2819 194.772 21.2819C196.002 21.2819 197.187 21.3727 198.417 21.4182C199.778 21.4636 201.183 21.4182 202.544 21.4182C203.686 21.4182 204.827 21.509 205.969 21.5544C207.067 21.5544 208.164 21.509 209.262 21.5544C213.653 21.8269 218 21.7361 222.391 21.7361C224.015 21.7361 225.596 21.7815 227.221 21.8724C233.28 22.2357 239.296 21.9632 245.355 22.0086C254.839 22.054 264.28 22.0086 273.764 22.0086C275.432 22.0086 277.101 21.9178 278.726 21.8724C279.033 21.8724 279.34 21.8724 279.648 21.8724C279.648 22.4174 279.34 22.5082 279.121 22.6899ZM282.502 13.1518C282.414 13.7877 282.282 14.4236 282.151 15.0594C282.107 15.2865 282.063 15.5136 281.975 15.7861C281.843 16.422 281.755 16.5129 281.141 16.5129C279.911 16.5129 278.638 16.5129 277.408 16.5129C265.685 16.5129 253.961 16.5129 242.238 16.5129C239.076 16.5129 235.871 16.6037 232.709 16.6491C231.612 16.6491 230.514 16.5583 229.416 16.6491C227.265 16.8308 225.069 16.7854 222.918 16.8308C221.337 16.8762 219.756 16.8762 218.176 16.9216C216.507 16.9671 214.839 17.1033 213.214 17.1487C212.292 17.1942 211.414 17.1942 210.492 17.1487C208.779 17.1033 207.067 16.9671 205.398 16.9216C204.037 16.8762 202.632 17.0125 201.271 16.9671C199.822 16.9671 198.373 16.8308 196.924 16.7854C195.958 16.74 194.948 16.74 193.982 16.74C191.962 16.74 189.942 16.7854 187.923 16.8308C181.6 16.8762 175.233 16.9216 168.91 17.0125C168.339 17.0125 167.768 17.1487 167.242 17.1487C163.992 17.1033 160.743 17.0579 157.494 17.0125C156.791 17.0125 156.089 17.0125 155.386 17.0125C152.269 16.9671 149.107 16.8762 145.99 16.7854C145.463 16.7854 144.892 16.8308 144.365 16.8308C140.238 16.7854 136.066 16.8308 131.939 16.6037C127.285 16.3766 122.674 16.5583 118.02 16.5129C116.791 16.5129 115.561 16.6037 114.288 16.6491C112.268 16.74 110.292 16.74 108.272 16.8762C107.306 16.9671 106.384 17.0125 105.418 16.9216C104.891 16.8762 104.408 16.9671 103.881 17.0125C102.915 17.0579 101.993 17.1487 101.027 17.1942C99.4027 17.2396 97.7342 17.2396 96.1096 17.1942C94.0898 17.1487 92.07 17.1942 90.0941 17.0125C88.5573 16.8762 87.0644 17.0579 85.5276 16.8762C82.1466 16.5129 78.8096 16.7854 75.4286 16.6945C74.7261 16.6945 74.6383 16.6037 74.6383 15.877C74.6383 15.014 74.6383 14.1965 74.6383 13.3335C74.6383 12.6068 74.7261 12.5159 75.4725 12.5159C75.6921 12.5159 75.9555 12.5159 76.1751 12.5159H104.452C113.717 12.5159 122.982 12.5159 132.246 12.5159C134.793 12.5159 137.34 12.3797 139.887 12.3797C146.912 12.3797 153.937 12.3797 160.963 12.3797C163.334 12.3797 165.705 12.5159 168.032 12.5159C170.974 12.5159 173.916 12.4251 176.858 12.3797C179.229 12.3343 181.6 12.3797 183.927 12.198C185.595 12.0618 187.264 12.0163 188.889 12.0163C189.898 12.0163 190.908 11.9255 191.918 12.0163C194.289 12.2434 196.704 12.1526 199.075 12.198C200.612 12.2434 202.149 12.2888 203.686 12.3343C215.98 12.6976 228.275 12.3797 240.569 12.5159C242.589 12.5159 244.653 12.5614 246.672 12.5159C247.682 12.5159 248.692 12.3343 249.746 12.2434C249.878 12.2434 249.965 12.2434 250.097 12.2434C250.932 12.198 251.766 12.1072 252.6 12.0618C253.127 12.0163 253.61 12.0618 254.137 12.0618C255.41 12.0163 256.684 11.9255 257.913 11.8801C258.703 11.8801 259.45 11.9709 260.24 12.0163C260.723 12.0618 261.162 12.0163 261.645 12.0618C262.436 12.1072 263.182 12.1526 263.928 12.198C264.06 12.198 264.148 12.198 264.28 12.2434C265.509 12.2888 266.739 12.3343 268.012 12.4251C272.359 12.743 276.706 12.4705 281.097 12.5614C281.272 12.5614 281.492 12.5614 281.624 12.4705C282.238 12.198 282.59 12.4705 282.502 13.1518Z" fill="#B38A5A"/>
  </g>
  <defs>
    <filter id="filter0_f" x="0" y="0" width="294" height="158" filterUnits="userSpaceOnUse" color-interpolation-filters="sRGB">
      <feFlood flood-opacity="0" result="BackgroundImageFix"/>
      <feBlend mode="normal" in="SourceGraphic" in2="BackgroundImageFix" result="shape"/>
      <feGaussianBlur stdDeviation="3.5" result="effect1_foregroundBlur"/>
    </filter>
  </defs>
</svg>
